# xmcd
#
# Track frame offsets: 
#        150
#        16037
#        31600
#        51175
#        68555
#        88512
#        115637
#        134422
#        153362
#        174587
#
# Disc length: 2621 seconds
#
# Revision: 1
# Processed by: cddbd v1.5.2PL0 Copyright (c) Steve Scherf et al.
# Submitted via: ExactAudioCopy v0.95b4
#
DISCID=6d0a3b0a
DTITLE=Stytz Syndicate - Best Before...
DYEAR=1991
DGENRE=Blues
TTITLE0=Demigod
TTITLE1=This must be everything
TTITLE2=A woman needs a lover
TTITLE3=Cryin' for love
TTITLE4=Don't keep me waiting
TTITLE5=Traces of lovers
TTITLE6=Change your way
TTITLE7=Stop nagging me
TTITLE8=Love comes walkin' in
TTITLE9=Heaven on earth
EXTD=
EXTT0=
EXTT1=
EXTT2=
EXTT3=
EXTT4=
EXTT5=
EXTT6=
EXTT7=
EXTT8=
EXTT9=
PLAYORDER=
